<?xml version="1.0" encoding="iso-8859-1"?>
<!-- Generator: Adobe Illustrator 18.0.0, SVG Export Plug-In . SVG Version: 6.00 Build 0)  -->
<!DOCTYPE svg PUBLIC "-//W3C//DTD SVG 1.1//EN" "http://www.w3.org/Graphics/SVG/1.1/DTD/svg11.dtd">
<svg version="1.1" id="Capa_1" xmlns="http://www.w3.org/2000/svg" xmlns:xlink="http://www.w3.org/1999/xlink" x="0px" y="0px"
	 viewBox="0 0 57 57" style="enable-background:new 0 0 57 57;" xml:space="preserve">
<g>
	<path style="fill:#AAC44C;" d="M44.553,48.894L36.05,55.13C34.393,56.345,32.393,57,30.338,57h-5.3
		c-2.284,0-4.495-0.81-6.239-2.285l-6.879-5.821C9.751,47.058,8.5,44.361,8.5,41.52V3.101C8.5,1.389,9.889,0,11.601,0H45.5
		c1.657,0,3,1.343,3,3v38.106C48.5,44.182,47.034,47.075,44.553,48.894z"/>
	<path style="fill:#63743A;" d="M48.5,10h-4V8c0-0.553-0.447-1-1-1s-1,0.447-1,1v2h-4V8c0-0.553-0.447-1-1-1s-1,0.447-1,1v2h-4V8
		c0-0.553-0.447-1-1-1s-1,0.447-1,1v2h-4V8c0-0.553-0.447-1-1-1s-1,0.447-1,1v2h-4V8c0-0.553-0.447-1-1-1s-1,0.447-1,1v2h-4V8
		c0-0.553-0.447-1-1-1s-1,0.447-1,1v2h-4c-0.553,0-1,0.447-1,1s0.447,1,1,1h4v2c0,0.553,0.447,1,1,1s1-0.447,1-1v-2h4v2
		c0,0.553,0.447,1,1,1s1-0.447,1-1v-2h4v2c0,0.553,0.447,1,1,1s1-0.447,1-1v-2h4v2c0,0.553,0.447,1,1,1s1-0.447,1-1v-2h4v2
		c0,0.553,0.447,1,1,1s1-0.447,1-1v-2h4v2c0,0.553,0.447,1,1,1s1-0.447,1-1v-2h4c0.553,0,1-0.447,1-1S49.053,10,48.5,10z"/>
	<path style="fill:#F0F9FD;" d="M14.489,19.665c-0.133,2.968,2.018,5.599,5.018,6.006c3.001,0.406,5.773-1.558,6.435-4.454
		L14.489,19.665z"/>
	<path style="fill:#F0F9FD;" d="M31.242,19.935c0.594,2.911,3.321,4.939,6.33,4.602c3.009-0.337,5.22-2.918,5.156-5.888
		L31.242,19.935z"/>
	<path style="fill:#ECF0F1;" d="M2.5,16L2.5,16c-1.1,0-2-0.9-2-2l0-6c0-1.1,0.9-2,2-2h0c1.1,0,2,0.9,2,2v6C4.5,15.1,3.6,16,2.5,16z"
		/>
	<rect x="4.5" y="9" style="fill:#A5A5A4;" width="4" height="4"/>
	<path style="fill:#63743A;" d="M46.947,28.382l-1.253-0.627c0.03-0.87-0.03-1.764-0.214-2.676c-0.109-0.541-0.64-0.896-1.178-0.783
		c-0.541,0.109-0.892,0.637-0.783,1.178c0.086,0.427,0.133,0.852,0.16,1.274l-0.732-0.366c-0.494-0.246-1.095-0.047-1.342,0.447
		s-0.047,1.095,0.447,1.342l1.51,0.755c-0.124,0.681-0.331,1.337-0.614,1.957l-1.002-0.501c-0.494-0.244-1.094-0.047-1.342,0.447
		c-0.247,0.494-0.047,1.095,0.447,1.342l0.834,0.417c-0.401,0.488-0.861,0.92-1.368,1.293l-1.312-1.312
		c-0.391-0.391-1.023-0.391-1.414,0s-0.391,1.023,0,1.414l0.9,0.9c-0.445,0.173-0.907,0.315-1.39,0.413
		c-0.541,0.109-0.892,0.637-0.783,1.178c0.096,0.475,0.513,0.803,0.979,0.803c0.065,0,0.132-0.006,0.198-0.02
		c0.901-0.181,1.736-0.479,2.511-0.858l1.584,1.584c0.195,0.195,0.451,0.293,0.707,0.293s0.512-0.098,0.707-0.293
		c0.391-0.391,0.391-1.023,0-1.414l-1.258-1.258c0.671-0.526,1.264-1.132,1.769-1.808l1.334,0.667
		c0.144,0.071,0.296,0.105,0.446,0.105c0.367,0,0.72-0.202,0.896-0.553c0.247-0.494,0.047-1.095-0.447-1.342l-1.201-0.601
		c0.285-0.612,0.509-1.257,0.669-1.929l0.638,0.319c0.144,0.071,0.296,0.105,0.446,0.105c0.367,0,0.72-0.202,0.896-0.553
		C47.642,29.229,47.441,28.629,46.947,28.382z"/>
	<path style="fill:#0A070B;" d="M36.135,48.973l-7.514-1.67c-0.08-0.018-0.162-0.027-0.243-0.027h-7.755
		c-0.62,0-1.122-0.502-1.122-1.122V44.28c0-0.572,0.43-1.052,0.998-1.115l7.884-0.876c0.079-0.009,0.156-0.026,0.231-0.051
		l7.411-2.47c0.726-0.242,1.477,0.299,1.477,1.064v7.045C37.5,48.595,36.835,49.129,36.135,48.973z"/>
	<path style="fill:#63743A;" d="M27.5,36.717c-1.219,0-2.438-0.465-3.366-1.393c-0.03-0.03-0.073-0.048-0.116-0.048h-2.633
		c-0.756,0-1.443-0.384-1.841-1.026s-0.434-1.43-0.096-2.105l1.157-2.315c0.248-0.494,0.848-0.693,1.342-0.447
		c0.494,0.247,0.694,0.848,0.447,1.342l-1.157,2.314c-0.027,0.055-0.024,0.108,0.008,0.16c0.031,0.052,0.079,0.078,0.14,0.078h2.633
		c0.569,0,1.128,0.231,1.53,0.634c1.076,1.076,2.828,1.076,3.904,0c0.402-0.402,0.961-0.634,1.53-0.634h2.633
		c0.061,0,0.108-0.026,0.14-0.078c0.032-0.052,0.035-0.105,0.008-0.161l-1.157-2.313c-0.247-0.494-0.047-1.095,0.447-1.342
		c0.494-0.246,1.095-0.047,1.342,0.447l1.157,2.314c0.338,0.677,0.302,1.464-0.096,2.106s-1.085,1.026-1.841,1.026h-2.633
		c-0.043,0-0.086,0.018-0.116,0.048C29.938,36.252,28.719,36.717,27.5,36.717z"/>
	<path style="fill:#ECF0F1;" d="M54.5,16L54.5,16c1.1,0,2-0.9,2-2V8c0-1.1-0.9-2-2-2h0c-1.1,0-2,0.9-2,2v6
		C52.5,15.1,53.4,16,54.5,16z"/>
	<rect x="48.5" y="9" style="fill:#A5A5A4;" width="4" height="4"/>
	<path style="fill:#C03A2B;" d="M24,44c-1.655,0-3.194,0.367-4.5,0.993v1.161c0,0.62,0.502,1.122,1.122,1.122h7.755
		c0.082,0,0.163,0.009,0.243,0.027l3.237,0.719C30.583,45.662,27.547,44,24,44z"/>
	<path style="fill:#464F5D;" d="M34.031,23.772c0.865-0.393,1.469-1.26,1.469-2.272c0-0.786-0.37-1.478-0.937-1.936l-3.321,0.372
		C31.583,21.604,32.637,22.963,34.031,23.772z"/>
	<path style="fill:#464F5D;" d="M23.146,20.837C22.749,21.28,22.5,21.859,22.5,22.5c0,0.895,0.474,1.674,1.18,2.115
		c1.109-0.802,1.939-1.987,2.262-3.4L23.146,20.837z"/>
</g>
<g>
</g>
<g>
</g>
<g>
</g>
<g>
</g>
<g>
</g>
<g>
</g>
<g>
</g>
<g>
</g>
<g>
</g>
<g>
</g>
<g>
</g>
<g>
</g>
<g>
</g>
<g>
</g>
<g>
</g>
</svg>
